<svg width="100px" height="100px" id="Layer_1" data-name="Layer 1" xmlns="http://www.w3.org/2000/svg"
	viewBox="0 0 338 481.15">

	<g id="Layer_2" data-name="Layer 2" *ngIf="leafvalue>0">
		<rect class="cls-1" x="81.92" y="397" width="174.22" height="76.06" rx="20.01" />
		<text class="cls-2" transform="translate(130.95 449.65)">{{leafvalue}}</text>
	</g>
	<g id="Layer_1-2" data-name="Layer 1">
		<path [ngStyle]="{'fill':colorvalue}"
			d="M330.31,176.19s-33.13-6.81-63.37,24.3c34.27-35.26,16.7-98.95,16.7-98.95s-39.75.59-67.4,29C216.24,65.39,169,7.92,169,7.92s-47.24,57.47-47.24,122.65c-27.65-28.44-67.4-29-67.4-29s-17.57,63.69,16.71,99C40.79,169.46,7.67,176.28,7.67,176.28S5.39,345.06,169,345.06,330.31,176.19,330.31,176.19Z"
			transform="translate(0.03 0)" />
		<path
			d="M250.72,249.84l-.07.07a8.06,8.06,0,0,0,0,11.19,7.53,7.53,0,0,0,10.65.22l.22-.22.08-.07a8.08,8.08,0,0,0,0-11.19,7.55,7.55,0,0,0-10.66-.22Z"
			transform="translate(0.03 0)" />
		<path
			d="M87.3,249.84a7.55,7.55,0,0,0-10.66-.22l-.22.22a8.08,8.08,0,0,0,0,11.19l.08.07a7.55,7.55,0,0,0,10.66.22l.22-.22a8.08,8.08,0,0,0,0-11.19Z"
			transform="translate(0.03 0)" />
		<path
			d="M256.09,156.31a7.6,7.6,0,0,0,5.44-2.31l.07-.08a8.08,8.08,0,0,0,0-11.19,7.55,7.55,0,0,0-10.66-.22l-.22.22-.08.07a8.09,8.09,0,0,0,0,11.2A7.62,7.62,0,0,0,256.09,156.31Z"
			transform="translate(0.03 0)" />
		<path
			d="M87.3,142.73a7.55,7.55,0,0,0-10.66-.22l-.22.22a8.08,8.08,0,0,0,0,11.19l.08.08a7.56,7.56,0,0,0,10.69.19l.19-.19a8.09,8.09,0,0,0,0-11.2Z"
			transform="translate(0.03 0)" />
		<path
			d="M338,176.06a7.86,7.86,0,0,0-6.19-7.64c-1.06-.22-19-3.69-40.94,5.81,10.9-34.87.75-72.78.17-74.87a7.73,7.73,0,0,0-7.4-5.76h-.11c-1.52,0-32.91.75-60.48,20.76-6.43-60.15-46.3-109.3-48.14-111.55a7.55,7.55,0,0,0-11.75,0c-1.84,2.25-41.71,51.4-48.16,111.57-27.56-20-59-20.73-60.48-20.76A7.77,7.77,0,0,0,47,99.38c-.58,2.09-10.72,40,.18,74.87-21.93-9.5-39.89-6-40.95-5.81A7.85,7.85,0,0,0,0,176.06c0,.81-.21,20.09,5.68,45.8,5.47,23.86,17.44,58,43.47,85.14,27.73,28.92,65.44,44.31,112.15,45.83v26.23a7.69,7.69,0,0,0,15.38,0V352.85c46.72-1.51,84.42-16.91,112.15-45.83,26-27.15,38-61.29,43.47-85.14C338.2,196.16,338,176.89,338,176.06ZM277.77,296c-22.42,23.34-52.42,36.83-89.36,40.27L244,279.2a8.08,8.08,0,0,0,0-11.14,7.55,7.55,0,0,0-10.66-.22l-.22.22-56.36,58V241.25L244,172.06a8.08,8.08,0,0,0,0-11.19,7.55,7.55,0,0,0-10.66-.22c-.08.07-.15.15-.22.22l-56.36,58V102.14a7.69,7.69,0,0,0-15.38,0V218.85L105,160.91a7.55,7.55,0,0,0-10.66-.22l-.22.22a8.08,8.08,0,0,0,0,11.19l67.22,69.13V326L105,268.06a7.55,7.55,0,0,0-10.66-.22l-.22.22a8.08,8.08,0,0,0,0,11.19l55.49,57.07c-37-3.43-67-16.93-89.37-40.27C23.43,257.77,16.83,202.9,15.65,183.49c10.14-.1,30.53,2.63,50,22.64h0a7.55,7.55,0,0,0,10.66.22c.08-.07.15-.15.22-.22a8.08,8.08,0,0,0,0-11.19h0c-24.66-25.42-19.21-68.79-16.1-84.9,11.53,1.42,37,6.69,56,26.21a7.56,7.56,0,0,0,8.39,1.71,7.93,7.93,0,0,0,4.74-7.31c0-47.82,27.27-92.1,39.55-109.62,12.29,17.53,39.55,61.8,39.55,109.62a7.92,7.92,0,0,0,4.75,7.31,7.51,7.51,0,0,0,8.38-1.71c18.88-19.42,44.42-24.74,56-26.19,3.14,16.11,8.63,59.38-16.11,84.88h0a8.06,8.06,0,0,0,0,11.19,7.55,7.55,0,0,0,10.66.22l.22-.22h0c19.45-20,39.83-22.75,50-22.64-1.33,19.37-7.94,74.23-44.71,112.51Z"
			transform="translate(0.03 0)" />
	</g>
</svg>